<svg width="40" height="36" viewBox="0 0 40 36" fill="none" xmlns="http://www.w3.org/2000/svg">
  <path d="M28.9 9.6V3H11.1V9.6H8.1V0H31.9V9.6H28.9ZM32.95 17.35C33.35 17.35 33.7 17.2 34 16.9C34.3 16.6 34.45 16.25 34.45 15.85C34.45 15.45 34.3 15.1 34 14.8C33.7 14.5 33.35 14.35 32.95 14.35C32.55 14.35 32.2 14.5 31.9 14.8C31.6 15.1 31.45 15.45 31.45 15.85C31.45 16.25 31.6 16.6 31.9 16.9C32.2 17.2 32.55 17.35 32.95 17.35ZM28.9 33V23.4H11.1V33H28.9ZM31.9 36H8.1V27.2H0V14.9C0 13.3983 0.508333 12.1396 1.525 11.1238C2.54167 10.1079 3.8 9.6 5.3 9.6H34.7C36.2017 9.6 37.4604 10.1079 38.4763 11.1238C39.4921 12.1396 40 13.3983 40 14.9V27.2H31.9V36ZM37 24.2V14.8892C37 14.2297 36.7796 13.6833 36.3388 13.25C35.8979 12.8167 35.3517 12.6 34.7 12.6H5.3C4.64833 12.6 4.10208 12.8204 3.66125 13.2613C3.22042 13.7021 3 14.2483 3 14.9V24.2H8.1V20.4H31.9V24.2H37Z" fill="white"/>
</svg>
