<svg width="40" height="38" viewBox="0 0 40 38" fill="none" xmlns="http://www.w3.org/2000/svg">
  <path d="M4.15 17.8C3.58333 17.8 3.08333 17.5833 2.65 17.15C2.21667 16.7167 2 16.2167 2 15.65C2 15.0833 2.21667 14.5833 2.65 14.15C3.08333 13.7167 3.58333 13.5 4.15 13.5C4.71667 13.5 5.21667 13.7167 5.65 14.15C6.08333 14.5833 6.3 15.0833 6.3 15.65C6.3 16.2167 6.08333 16.7167 5.65 17.15C5.21667 17.5833 4.71667 17.8 4.15 17.8ZM2.0158 38V28.7H0V20.45C0 20.05 0.159167 19.725 0.4775 19.475C0.7959 19.225 1.1904 19.1 1.661 19.1H6.64405C7.11468 19.1 7.50833 19.225 7.825 19.475C8.14167 19.725 8.3 20.05 8.3 20.45V28.7H6.35V35H24.75V22.85H20.7C18.5333 22.85 16.6833 22.1172 15.15 20.6516C13.6167 19.186 12.85 17.4022 12.85 15.3C12.85 13.7667 13.3083 12.3 14.225 10.9C15.1417 9.5 16.4333 8.51667 18.1 7.95C18.3333 5.61667 19.25 3.70833 20.85 2.225C22.45 0.741667 24.3083 0 26.425 0C28.5417 0 30.3917 0.741667 31.975 2.225C33.5583 3.70833 34.4833 5.61667 34.75 7.95C36.4167 8.51667 37.7083 9.5 38.625 10.9C39.5417 12.3 40 13.7667 40 15.3C40 17.4022 39.225 19.186 37.675 20.6516C36.125 22.1172 34.2667 22.85 32.1 22.85H27.75V35H38.3V38H2.0158ZM20.7 19.85H32.1C33.3667 19.85 34.5 19.4167 35.5 18.55C36.5 17.6833 37 16.6 37 15.3C37 14.2606 36.6667 13.3174 36 12.4704C35.3333 11.6235 34.5167 11 33.55 10.6L31.75 9.85V8.3C31.75 6.8 31.2167 5.54167 30.15 4.525C29.0833 3.50833 27.8377 3 26.4132 3C24.9886 3 23.747 3.50833 22.6882 4.525C21.6294 5.54167 21.1 6.8 21.1 8.3V9.85L19.3 10.6C18.3333 11 17.5167 11.6235 16.85 12.4704C16.1833 13.3174 15.85 14.2606 15.85 15.3C15.85 16.6 16.3417 17.6833 17.325 18.55C18.3083 19.4167 19.4333 19.85 20.7 19.85Z" fill="white"/>
</svg>
