<svg width="40" height="42" viewBox="0 0 40 42" fill="none" xmlns="http://www.w3.org/2000/svg">
  <path d="M20.15 15.3V9.15H13.95V6.15H20.15V0H23.15V6.15H29.3V9.15H23.15V15.3H20.15ZM11.3894 41.95C10.3965 41.95 9.55 41.5965 8.85 40.8894C8.15 40.1823 7.8 39.3323 7.8 38.3394C7.8 37.3465 8.15353 36.5 8.8606 35.8C9.5677 35.1 10.4177 34.75 11.4106 34.75C12.4035 34.75 13.25 35.1035 13.95 35.8106C14.65 36.5177 15 37.3677 15 38.3606C15 39.3535 14.6465 40.2 13.9394 40.9C13.2323 41.6 12.3823 41.95 11.3894 41.95ZM31.5894 41.95C30.5965 41.95 29.75 41.5965 29.05 40.8894C28.35 40.1823 28 39.3323 28 38.3394C28 37.3465 28.3535 36.5 29.0606 35.8C29.7677 35.1 30.6177 34.75 31.6106 34.75C32.6035 34.75 33.45 35.1035 34.15 35.8106C34.85 36.5177 35.2 37.3677 35.2 38.3606C35.2 39.3535 34.8465 40.2 34.1394 40.9C33.4323 41.6 32.5823 41.95 31.5894 41.95ZM11.4 31.6C10 31.6 8.975 31.0333 8.325 29.9C7.675 28.7667 7.68333 27.6167 8.35 26.45L11.4 20.9L3.9 4.95H0V1.95H5.8L14.3 20.15H28.9L36.7 6.15L39.3 7.55L31.65 21.4C31.3379 21.9556 30.9266 22.3861 30.4159 22.6917C29.9053 22.9972 29.3 23.15 28.6 23.15H13.6L10.5 28.6H35.2V31.6H11.4Z" fill="white"/>
</svg>
